<svg width="197" height="39" viewBox="0 0 197 39" fill="none" xmlns="http://www.w3.org/2000/svg">
<path d="M8.27273 31H0.0227273V7.72727H8.34091C10.6818 7.72727 12.697 8.19318 14.3864 9.125C16.0758 10.0492 17.375 11.3788 18.2841 13.1136C19.2008 14.8485 19.6591 16.9242 19.6591 19.3409C19.6591 21.7652 19.2008 23.8485 18.2841 25.5909C17.375 27.3333 16.0682 28.6705 14.3636 29.6023C12.6667 30.5341 10.6364 31 8.27273 31ZM4.94318 26.7841H8.06818C9.52273 26.7841 10.7462 26.5265 11.7386 26.0114C12.7386 25.4886 13.4886 24.6818 13.9886 23.5909C14.4962 22.4924 14.75 21.0758 14.75 19.3409C14.75 17.6212 14.4962 16.2159 13.9886 15.125C13.4886 14.0341 12.7424 13.2311 11.75 12.7159C10.7576 12.2008 9.53409 11.9432 8.07955 11.9432H4.94318V26.7841ZM23.2131 31V13.5455H27.9062V16.5909H28.0881C28.4063 15.5076 28.9403 14.6894 29.6903 14.1364C30.4403 13.5758 31.304 13.2955 32.2812 13.2955C32.5237 13.2955 32.785 13.3106 33.0653 13.3409C33.3456 13.3712 33.5919 13.4129 33.804 13.4659V17.7614C33.5767 17.6932 33.2623 17.6326 32.8608 17.5795C32.4593 17.5265 32.0919 17.5 31.7585 17.5C31.0464 17.5 30.41 17.6553 29.8494 17.9659C29.2964 18.2689 28.857 18.6932 28.5312 19.2386C28.2131 19.7841 28.054 20.4129 28.054 21.125V31H23.2131ZM40.7841 31.3295C39.6705 31.3295 38.678 31.1364 37.8068 30.75C36.9356 30.3561 36.2462 29.7765 35.7386 29.0114C35.2386 28.2386 34.9886 27.2765 34.9886 26.125C34.9886 25.1553 35.1667 24.3409 35.5227 23.6818C35.8788 23.0227 36.3636 22.4924 36.9773 22.0909C37.5909 21.6894 38.2879 21.3864 39.0682 21.1818C39.8561 20.9773 40.6818 20.8333 41.5455 20.75C42.5606 20.6439 43.3788 20.5455 44 20.4545C44.6212 20.3561 45.072 20.2121 45.3523 20.0227C45.6326 19.8333 45.7727 19.553 45.7727 19.1818V19.1136C45.7727 18.3939 45.5455 17.8371 45.0909 17.4432C44.6439 17.0492 44.0076 16.8523 43.1818 16.8523C42.3106 16.8523 41.6174 17.0455 41.1023 17.4318C40.5871 17.8106 40.2462 18.2879 40.0795 18.8636L35.6023 18.5C35.8295 17.4394 36.2765 16.5227 36.9432 15.75C37.6098 14.9697 38.4697 14.3712 39.5227 13.9545C40.5833 13.5303 41.8106 13.3182 43.2045 13.3182C44.1742 13.3182 45.1023 13.4318 45.9886 13.6591C46.8826 13.8864 47.6742 14.2386 48.3636 14.7159C49.0606 15.1932 49.6098 15.8068 50.0114 16.5568C50.4129 17.2992 50.6136 18.1894 50.6136 19.2273V31H46.0227V28.5795H45.8864C45.6061 29.125 45.2311 29.6061 44.7614 30.0227C44.2917 30.4318 43.7273 30.7538 43.0682 30.9886C42.4091 31.2159 41.6477 31.3295 40.7841 31.3295ZM42.1705 27.9886C42.8826 27.9886 43.5114 27.8485 44.0568 27.5682C44.6023 27.2803 45.0303 26.8939 45.3409 26.4091C45.6515 25.9242 45.8068 25.375 45.8068 24.7614V22.9091C45.6553 23.0076 45.447 23.0985 45.1818 23.1818C44.9242 23.2576 44.6326 23.3295 44.3068 23.3977C43.9811 23.4583 43.6553 23.5152 43.3295 23.5682C43.0038 23.6136 42.7083 23.6553 42.4432 23.6932C41.875 23.7765 41.3788 23.9091 40.9545 24.0909C40.5303 24.2727 40.2008 24.5189 39.9659 24.8295C39.7311 25.1326 39.6136 25.5114 39.6136 25.9659C39.6136 26.625 39.8523 27.1288 40.3295 27.4773C40.8144 27.8182 41.428 27.9886 42.1705 27.9886ZM58.7557 25.9773L58.767 20.1705H59.4716L65.0625 13.5455H70.6193L63.108 22.3182H61.9602L58.7557 25.9773ZM54.3693 31V7.72727H59.2102V31H54.3693ZM65.2784 31L60.142 23.3977L63.3693 19.9773L70.9489 31H65.2784ZM80.1619 31.3409C78.3968 31.3409 76.8703 30.9659 75.5824 30.2159C74.3021 29.4583 73.3134 28.4053 72.6165 27.0568C71.9195 25.7008 71.571 24.1288 71.571 22.3409C71.571 20.5379 71.9195 18.9621 72.6165 17.6136C73.3134 16.2576 74.3021 15.2045 75.5824 14.4545C76.8703 13.697 78.3968 13.3182 80.1619 13.3182C81.9271 13.3182 83.4498 13.697 84.7301 14.4545C86.018 15.2045 87.0104 16.2576 87.7074 17.6136C88.4044 18.9621 88.7528 20.5379 88.7528 22.3409C88.7528 24.1288 88.4044 25.7008 87.7074 27.0568C87.0104 28.4053 86.018 29.4583 84.7301 30.2159C83.4498 30.9659 81.9271 31.3409 80.1619 31.3409ZM80.1847 27.5909C80.9877 27.5909 81.6581 27.3636 82.196 26.9091C82.7339 26.447 83.1392 25.8182 83.4119 25.0227C83.6922 24.2273 83.8324 23.322 83.8324 22.3068C83.8324 21.2917 83.6922 20.3864 83.4119 19.5909C83.1392 18.7955 82.7339 18.1667 82.196 17.7045C81.6581 17.2424 80.9877 17.0114 80.1847 17.0114C79.3741 17.0114 78.6922 17.2424 78.1392 17.7045C77.5938 18.1667 77.1809 18.7955 76.9006 19.5909C76.6278 20.3864 76.4915 21.2917 76.4915 22.3068C76.4915 23.322 76.6278 24.2273 76.9006 25.0227C77.1809 25.8182 77.5938 26.447 78.1392 26.9091C78.6922 27.3636 79.3741 27.5909 80.1847 27.5909ZM106.423 18.5227L101.991 18.7955C101.916 18.4167 101.753 18.0758 101.503 17.7727C101.253 17.4621 100.923 17.2159 100.514 17.0341C100.113 16.8447 99.6316 16.75 99.071 16.75C98.321 16.75 97.6884 16.9091 97.1733 17.2273C96.6581 17.5379 96.4006 17.9545 96.4006 18.4773C96.4006 18.8939 96.5672 19.2462 96.9006 19.5341C97.2339 19.822 97.8059 20.053 98.6165 20.2273L101.776 20.8636C103.473 21.2121 104.738 21.7727 105.571 22.5455C106.404 23.3182 106.821 24.3333 106.821 25.5909C106.821 26.7348 106.484 27.7386 105.81 28.6023C105.143 29.4659 104.226 30.1402 103.06 30.625C101.901 31.1023 100.563 31.3409 99.0483 31.3409C96.7377 31.3409 94.8968 30.8598 93.5256 29.8977C92.1619 28.928 91.3627 27.6098 91.1278 25.9432L95.8892 25.6932C96.0331 26.3977 96.3816 26.9356 96.9347 27.3068C97.4877 27.6705 98.196 27.8523 99.0597 27.8523C99.9081 27.8523 100.59 27.6894 101.105 27.3636C101.628 27.0303 101.893 26.6023 101.901 26.0795C101.893 25.6402 101.707 25.2803 101.344 25C100.98 24.7121 100.42 24.4924 99.6619 24.3409L96.6392 23.7386C94.9347 23.3977 93.6657 22.8068 92.8324 21.9659C92.0066 21.125 91.5938 20.053 91.5938 18.75C91.5938 17.6288 91.8968 16.6629 92.5028 15.8523C93.1165 15.0417 93.9763 14.4167 95.0824 13.9773C96.196 13.5379 97.4991 13.3182 98.9915 13.3182C101.196 13.3182 102.931 13.7841 104.196 14.7159C105.469 15.6477 106.211 16.9167 106.423 18.5227Z" fill="white"/>
<path d="M121.707 0.227272V38.5H119.435V0.227272H121.707ZM156.085 7.72727V31H153.358L140.676 12.7273H140.449V31H137.631V7.72727H140.358L153.085 26.0455H153.312V7.72727H156.085ZM161.724 31V7.72727H175.679V10.2273H164.543V18.0909H174.634V20.5909H164.543V31H161.724ZM179.233 10.2273V7.72727H196.688V10.2273H189.369V31H186.551V10.2273H179.233Z" fill="#929292"/>
</svg>
