<svg width="35" height="40" viewBox="0 0 35 40" fill="none" xmlns="http://www.w3.org/2000/svg">
<path d="M0.9375 15C0.390625 15 0 15.4688 0 15.9375V36.25C0 38.3594 1.64062 40 3.75 40H31.25C33.2812 40 35 38.3594 35 36.25V15.9375C35 15.4688 34.5312 15 34.0625 15H0.9375ZM35 11.5625V8.75C35 6.71875 33.2812 5 31.25 5H27.5V0.9375C27.5 0.46875 27.0312 0 26.5625 0H23.4375C22.8906 0 22.5 0.46875 22.5 0.9375V5H12.5V0.9375C12.5 0.46875 12.0312 0 11.5625 0H8.4375C7.89062 0 7.5 0.46875 7.5 0.9375V5H3.75C1.64062 5 0 6.71875 0 8.75V11.5625C0 12.1094 0.390625 12.5 0.9375 12.5H34.0625C34.5312 12.5 35 12.1094 35 11.5625Z" fill="white"/>
</svg>
